<?xml version="1.0" encoding="UTF-8"?>
<svg id="figure" xmlns="http://www.w3.org/2000/svg" version="1.1" viewBox="0 0 1006.3 793.7">
  <!-- Generator: Adobe Illustrator 29.7.1, SVG Export Plug-In . SVG Version: 2.1.1 Build 8)  -->
  <defs>
    <style>
      .st0, .st1, .st2, .st3, .st4, .st5, .st6, .st7, .st8, .st9, .st10, .st11, .st12, .st13, .st14, .st15, .st16 {
        stroke: #00aeef;
      }

      .st0, .st1, .st2, .st3, .st5, .st6, .st7, .st8, .st9, .st10, .st11, .st14, .st15, .st16 {
        fill: none;
      }

      .st0, .st1, .st2, .st4, .st6, .st8, .st12, .st13, .st15 {
        stroke-linecap: square;
      }

      .st0, .st4, .st5, .st7, .st8, .st9 {
        stroke-width: .58px;
      }

      .st1, .st2, .st3, .st12 {
        stroke-width: .86px;
      }

      .st1, .st3, .st4, .st17, .st6, .st7, .st8, .st9, .st11, .st12, .st13 {
        fill-rule: evenodd;
      }

      .st3, .st7, .st16 {
        stroke-linejoin: round;
      }

      .st4, .st13 {
        fill: #00aeef;
      }

      .st17 {
        fill: #abe1fa;
      }

      .st6, .st10, .st11, .st13, .st14, .st15, .st16 {
        stroke-width: .29px;
      }

      .st10 {
        stroke-dasharray: 2.88 1.44;
      }

      .st12 {
        fill: #fff;
      }
    </style>
  </defs>
  <path class="st12" d="M84.29,297.1c1.54-29.36,4.21-50.48,16.91-72.56l30.55-44.79c25.64-34.95,63.36-67.73,104.54-87.55,21.6-7.6,42.87-18.53,65.6-22.41,49.43-8.33,102.97-23.97,153.13-12.48,19.57,3.64,32.44,18.96,47.24,30.44,6.87-7.68,18.36-16.58,34.14-19.74,84.21-11.89,184.92,8.9,257.72,52.34,49.26,35.03,107.67,85.18,123.36,142.53,3.88,19.66,13.59,57.27,6.15,73.53.57,43.68-30.5,139.29-62.93,173.67-28.31,22.97-61.15,43.68-101.68,32.76-29.36-9.14-115.68-69.65-143.18-55.17-14.07,7.52.24,31.14-48.37,43.03-16.26,3.88-33.25,6.72-49.42,9.47-34.3,5.74-110.74-6.71-118.99-45.06-1.86-11.33-16.58-.24-39.07,6.47-23.62,7.04-49.26,18.44-55.41,21.68-69.24,42.47-142.21-3.96-177.15-64.71-4.21-6.63-33.81-68.43-39.56-108.15-.73-1.86.57-8.25.65-9.95.08-5.66-3.96-9.87-4.21-43.36Z"/>
  <path class="st10" d="M716.32,242.66c-3.66,2.18-19.41-8.51-25.68-7.85-5.39.57,6.25,16.53,1.79,18.93"/>
  <path class="st3" d="M474.51,200.6c-13.91,3.07-35.75,6.31-51.85,9.63-2.02.4-4.21.81-13.27,4.12-5.5,1.94-13.35,5.74-18.12,8.17-.81.89-3.64,2.27-5.42,3.32-23.13,14.16-68.6,25.56-78.22,35.83-29.12,30.82-39.64,52.17-35.67,80.97,1.94,14.48,7.36,22.41,13.83,36.16,11.08,23.86,32.84,43.44,44.09,66.82,11.08,11.16,19.9,22.97,34.54,31.47,3.16,2.67,12.86,8.49,16.18,9.71,2.83,1.05,7.2,2.51,11.16,2.51M622.06,485.01c9.95-2.11,29-14.01,47.32-25.56,5.82-5.5,11.24-12.13,16.1-17.88l2.83-4.29c4.21-12.46,16.18-23.7,23.62-34.62,12.86-14.24,22.73-29.44,28.8-44.25l1.62-4.04c3.88-9.06,2.67-18.36.56-27.67-.48-1.94-1.13-3.8-1.54-5.74-1.7-7.28-6.87-14.48-11.24-21.84-5.66-9.87-13.11-19.33-22.25-28.72l-4.69-3.8c-5.34-3.72-10.27-8.01-16.18-10.52-5.5-2.43-16.82-7.04-25-9.95-8.09-2.75-49.67-6.63-61.4-22.81-1.62-1.46-10.84-3.96-13.99-4.45-1.21-.24-2.75-.24-4.04-.4-15.69-1.38-33.41-1.29-48.7-6.15l-5.02,3.4c-16.83-11.24-30.66-7.69-41.42-1.05l-4.93-6.39-8.82-6.88"/>
  <g>
    <path class="st17" d="M727.46,248.08l.08-.08-16.66-7.93-34.3-19.17c-7.36-4.21-20.95-8.25-29.45-7.93-8.9-2.26-19.01-.73-27.74,1.46,11.08,2.51,22.65,1.05,33.08,3.88,15.37,3.64,35.67,19.17,39.96,35.43l-4.45-.08c2.27-9.55-36.48-39.31-55.09-33.81-7.12-.4-20.71-.08-21.76-3.8-3.07-10.52,47-10.92,57.76-5.74,6.63,3.23,57.35,30.58,58.57,37.78Z"/>
    <path class="st17" d="M310.14,235.79c3.48,18.44-19.58,29.36-28.31,42.63-9.38,12.54-17.47,25.64-24.11,40.45-13.35,24.67,9.46,56.87,22.81,78.06,16.5,26.69,79.84,87.77,72.07,86.47-7.77.4-11.81-9.14-20.14-10.76-2.91.16-2.59,2.02-2.83,3.56-.08.4.24,1.7,7.93,16.34,1.94,3.72-3.88,14.72-8.09,13.51-2.02-.65-1.62-1.46,0-4.69.89-1.78,1.54-4.61,1.46-7.12-1.94-9.14-2.35-6.96-3.96-9.06-28.88-13.27-54.76-46.84-83.4-63.74-32.92-30.33-62.45-75.55-56.79-105l4.04-21.44c3.88-10.76,6.63-15.61,11.08-25.64l2.67-7.2,2.75-5.18c5.34-8.66,10.68-17.23,16.02-25.89,6.07-9.3,14.48-19.25,24.91-27.67,9.54-6.79,19.74-13.35,29.36-19.82,3.56-2.02,7.12-4.04,10.68-6.07,44.57-25.08,52.66-27.02,72.16-26.45,6.71.16,15.21,1.37,21.27,3.64,8.66,3.4,10.35,6.55,15.94,10.44,5.74,6.23-2.67,13.75-5.82,10.35-26.78-29.53-50.56-19.01-79.03-5.82-25.97,14.88-50.32,27.42-71.18,47.65-10.84,11.65-17.39,23.62-25.81,35.67-.48,1.86-3.8,9.55-3.72,12.13-.32,2.99-1.29,5.99-2.91,9.06-1.46,5.42-6.07,16.91-10.52,22.16-3.64,10.68-3.64,32.6,1.37,45.06,5.02,12.21,14.56,23.3,26.53,27.83,19.01,4.93,13.19-39.72,17.47-50.23,14.88-25.72,31.55-50.64,54.2-71.27,4.29-3.24,8.01-7.77,10.84-12.05l1.05.08Z"/>
    <path class="st17" d="M311.92,256.82h-1.78l2.67-8.82c2.35-6.63,8.58-15.29,16.66-18.36,8.74-4.69,40.2-18.52,39.72-19.82-.81-.73-12.54.97-18.04,3.24-15.37,4.77-31.06,12.38-45.06,20.63l-10.36,5.66-14.64,8.66c-3.24,2.91-6.23,2.67-5.82.08.89-2.99,2.51-5.34,7.36-7.44,24.11-14.96,47.16-28.07,71.67-35.35,10.68-1.46,21.28-4.21,31.39.57,7.93,9.38-15.77,11.73-20.22,11.73-4.21,1.62-11,4.53-20.46,9.06-6.07,2.91-13.59,6.23-19.58,11.16-5.02,6.07-10.03,11.24-13.51,19.01Z"/>
    <path class="st17" d="M369.68,481.29c-1.37-.73-2.75-1.46-4.13-2.18-3.4,4.93-8.98,9.22-14.8,10.84.57,7.85,13.91-.24,18.93-7.2v-1.46Z"/>
    <path class="st17" d="M519.17,192.51c.97-5.1,6.31-9.55,4.61-1.7-.81,2.51-3.72,9.06-4.61,1.7Z"/>
    <path class="st17" d="M590.35,190.41c-2.35-6.47,8.65-8.33,16.66-16.83,9.79-10.27,18.93-16.58,21.44-17.96,21.52-16.02,94.97,27.1,107.59,35.51,16.18,11.73,36.65,28.88,49.02,45.46l11.97,22.33v.4c23.7,37.78,33.33,75.96,4.12,118.18-9.14,14.88-45.3,39.15-43.12,8.01-.65-19.66,12.05-24.11,4.13-55.73-3.64-18.69-25.89-37.94-38.59-54.84-7.52-9.95-26.86-19.17-31.23-30.58-3.48-9.14-3.72-13.02,5.34-6.63,25.24,23.13,53.96,62.69,78.22,83.4,6.47,5.91,8.33,8.41,17.23,10.68,1.7-.49,6.96-2.91,7.52-4.37,2.91-6.63,1.13-11.24,1.54-17.63-.89-11.08-1.13-22-4.77-33-1.37-3.64-6.71-11.57-8.9-14.72l-9.87-19.41.24-2.35c-33.08-42.55-97.72-81.3-134.45-81.78-12.86-.16-11.4-2.18-25.48,14.32-7.69,9.06-23.54,22.65-28.63,17.55Z"/>
    <path class="st17" d="M682.89,490.11c2.75-7.68,7.52-15.04,8.25-23.38.4-5.18-5.42-6.15-10.92-3.23-8.82,10.27-19.17,13.75-18.93,9.3.89-3.56,21.52-22.57,40.85-42.71,13.1-13.75,50.07-34.62,53.23-24.19,2.99,9.79-24.59,39.88-40.61,54.6-14.56,13.35-24.35,21.03-24.27,30.25,0,16.18-10.84.16-7.6-.65Z"/>
    <path class="st17" d="M644.79,477.98l6.07-3.72c5.74,1.7,11.49.41,17.23,5.18-5.1,3.8-15.85,2.02-23.3-1.46Z"/>
    <path class="st17" d="M479.37,193.8c1.94-1.78-4.45-7.93-6.96-6.63-3.8,2.02,4.61,8.74,6.96,6.63Z"/>
  </g>
  <path class="st7" d="M706.33,407.41c1.62-8.09,7.59-16.72-4.46-15.42-8.09.81-13.64,6.55-20.92,10.44-9.57,5.11-12.29-2.18-22.32,10.92-1.62,2.09,6.83,11.16-2.19,19.47-10.08,9.29-14.07-4.09-14.07-4.09,0,0-11.85,8.05-15.14,10.36-9.95,7.04-17.73,12.27-24.66,19.27-3.88,3.93-6.8,14.48-1.78,21.39,4.19,5.76,9.06,5.74,21.28,5.26"/>
  <line class="st15" x1="84.43" y1="294.5" x2="159.52" y2="299.21"/>
  <line class="st15" x1="86.31" y1="326.63" x2="158.14" y2="323.88"/>
  <line class="st15" x1="88.5" y1="354.05" x2="161.8" y2="346.73"/>
  <line class="st15" x1="121.99" y1="196.8" x2="188.72" y2="238.46"/>
  <path class="st6" d="M134.93,441.01c7.04-12.54,15.77,11,23.94,28.07,13.51,20.63,8.57,22.33,31.71,36.8,6.47,2.51,12.78-1.29,17.88,2.51.73,8.01-11.24,7.36-17.07,7.2-33.33-20.46-42.06-41.74-56.46-74.58Z"/>
  <line class="st15" x1="148.84" y1="161.77" x2="210.08" y2="208.85"/>
  <path class="st8" d="M159.52,312.96c2.67-13.51,6.88-29.44,11.98-41.9,15.77-31.63,31.05-58.57,59.29-82.83,54.76-44.09,103.46-56.83,166.56-69.89,15.86-3.88,23.7-3.32,31.47,5.01,5.1,5.5,8.98,13.43,13.75,21.44-15.37-13.19-36.16-21.92-71.75-14.16"/>
  <path class="st8" d="M159.52,312.96c-.49,6.29,1.3,20.16,3.98,36.32,1.94,12.21,4.21,22.67,9.47,31.97,9.46,16.34,18.26,33.55,29.34,46.33,5.9,6.79,19.25,8.49,26.13,10.68,13.35,4.29,20.95,17.47,36.32,17.96"/>
  <path class="st8" d="M169.31,320.24c10.11-45.3,31.87-91,67.14-124.33,38.34-31.63,105.48-69.32,143.66-60.02,16.58-8.25,55.01,35.27,69.49,38.75.65-11.89-.41-19.17-6.8-29.36"/>
  <path class="st8" d="M258.94,452.82l5.74,3.24c-.24-.57-1.21-1.94-1.37-2.51-4.29-5.58-10.27-10.52-15.45-15.61l-6.31-5.18c-11.65-9.46-26.78-20.79-35.84-33.97l-.89-.65-8.9-12.05c-14.72-20.06-22.33-55.49-21.19-62.77,13.51-86.47,80.57-157.74,170.12-181.36,11.81-3.15,38.67-10.58,53.55,12.42,6.39,9.87,16.02,21.86,27.02,24.13,3.88,1.13,10.6,3.01,14.16,2.04"/>
  <path class="st6" d="M248.58,498.04c-5.82-8.17-16.83-11.9-17.07-25.32,46.51-14.24,74.58,1.7,98.53,23.86"/>
  <path class="st6" d="M330.2,476.2c4.85-.4,6.23-.57,13.59,4.77"/>
  <path class="st6" d="M196.5,325.09c7.02,12.07,21.2,49.43,38,26.5,3.8-9.06,1.62-19.3,4.62-28.19l5.1-10.52c8.25-13.75,18.77-27.34,28.88-41.09l7.77-9.3,26.21-25"/>
  <path class="st6" d="M211.42,437.47s-22.37,30.55,6.02,35.25c9.46,2.51,13.75.32,22.73-6.31,5.82-4.29,7.04-4.29,14.48-12.21"/>
  <line class="st15" x1="217.99" y1="102.15" x2="258.53" y2="167.19"/>
  <path class="st6" d="M214.32,532c13.83-18.93,29.97-32.9,47.93-37.43,6.79-1.7,33.25,2.42,51.13,6.3,6.23,1.38,12.05,2.67,14.96,1.21"/>
  <path class="st6" d="M236.53,261.35c.16-3.96,2.1-7.77,5.34-11.97,6.07-8.58,13.99-15.86,22.33-24.67l3.96-3.32,2.99-2.67,2.43-2.1c3.56-2.99,7.93-5.9,11.41-8.25,17.71-10.92,33.81-21.19,50.88-27.02l1.86-.32,5.1-1.13,2.35-.81c11.97-1.78,23.78-3.48,35.27,2.1,7.04,4.69,13.67,13.27,20.71,17.39,17.55,11.24,35.27,6.07,52.98,4.13,3.8-.89,7.68-1.86,11.41-2.91l9.38-2.83,6.88-2.67"/>
  <path class="st8" d="M398.39,204.72c-3.48-6.88-13.75-12.05-21.44-13.99-21.92-11.81-93.03,27.58-104.27,42.06"/>
  <path class="st6" d="M328.91,393.69c.57-2.75.65-5.42-.49-8.17l.08-.97.57-.49,7.85,4.69,5.58,3.4c15.29,10.27,30.98,19.66,46.51,28.88l1.46.57,6.96,2.91h6.31l3.07-1.86,5.74-4.69,10.19-10.19-.16-.41"/>
  <path class="st6" d="M236.53,261.59v2.19c.24,2.34,4.13,9.5,6.8,10.15,4.37.89,6.62-3.44,10.75-5.86l7.36-5.99,8.24-7.26"/>
  <path class="st8" d="M330.36,445.86c-52.98-68.6-93.75-122.31-22.49-186.62.81-.73,3.96-3.32,3.72-.97"/>
  <path class="st6" d="M279.4,315.3c3.64-.08,30.58,20.3,32.52,19.17.24-1.54.57-3.15.73-4.61,13.43,10.35,27.18,28.07,34.54,9.95,6.23-15.13.41-30.25-5.74-44.17-1.62-3.64-1.7-5.91-1.94-6.88"/>
  <path class="st6" d="M287.17,358.74l4.61-1.38c5.58-1.29,11.08-4.77,16.26-7.68,6.53-.87,5.26-14.64,5.26-14.64"/>
  <path class="st8" d="M305.78,409.77c-6.71-14.4,1.12-23.37-13.11-39.46-18.36-25.64-22.33-40.37-8.09-66.66,8.82-24.67,15.77-38.02,44.41-47.4,41.09-13.35,69.49-31.87,97.64-38.59,14.32-3.48,46.92-4.77,55.82-10.19"/>
  <path class="st6" d="M333.36,293.22c4.37-6.55,13.35-4.69,18.2-8.98,20.95-17.71,23.78-32.44,28.15-46.75"/>
  <path class="st6" d="M284.9,306.81c7.77,6.15,14.56,14.32,22.49,15.77"/>
  <path class="st6" d="M301,381.15c4.61-2.83,8.58-2.99,12.94-1.78,7.04,1.62,9.62,7.28,8.57,11"/>
  <path class="st6" d="M297.36,326.55v8.49c.24,6.47,1.29,10.68,3.96,17.23"/>
  <path class="st6" d="M349.86,333.18c4.45,3.4,28.07,11.49,44.73,18.12"/>
  <path class="st6" d="M618.83,350.41c4.85,3.15,25.88-4.77,43.84-8.41"/>
  <path class="st6" d="M297.2,364.97c1.13-4.04,3.72-7.36,9.14-5.66,4.21,1.38,9.06,7.52,12.05,11.08l.48,2.26-1.62.97-1.7.16-7.12.89-1.86.32-2.18.97-2.26-.24-.32-.41c-2.43-1.78-3.48-4.53-3.8-6.55l-.81-3.56"/>
  <path class="st6" d="M293.8,496.91c10.03,8.74,13.38,10.76,14.59,23.54"/>
  <path class="st6" d="M309.98,348.47c7.6,8.17,28.39,21.52,38.1,28.72,20.87,17.31,41.58,29.44,62.45,41.82"/>
  <path class="st8" d="M307.47,322.66c10.03-3.48,14-17.88,25.81-29.04-.89,11.41-19.58,20.3-16.26,37.29.65,6.07-8.25-5.9-9.55-8.25Z"/>
  <path class="st6" d="M315.08,374.52l.97.73c4.53,1.05,8.74,3.32,12.3,8.25"/>
  <path class="st8" d="M302.46,394.17c3.8-12.46,15.89-8.94,27.26.65,25.22,21.27,20.03,11.85,17.39,22.98-7.1,29.93,20.56,37.57,22.57,16.09.89-9.55,6.71-.48,14.84,7.12,5.58,5.21,14.04,11.73,22.66,18.16,5.08,3.79-4.75,19.13-6.12,24.06-1.37,4.53-5.02,5.99-9.06,6.07"/>
  <path class="st6" d="M386.79,444.11c5.05-15.39,13.78-.68,19.37,4.66,1.13,3.8,4.93,13.91,3.24,17.07"/>
  <path class="st6" d="M334.25,255.28c1.21.81,2.02,1.86,2.35,2.91.49,9.06-.57,17.71-.08,26.53l-1.21,6.07"/>
  <path class="st6" d="M339.99,254.07c.4,10.27.49,20.22-.24,30.5l.16,3.48"/>
  <path class="st6" d="M341.69,347.82c7.77,7.12,25.8,15.94,36.16,20.38"/>
  <path class="st6" d="M345.01,350.65c7.76,7.12,22.49,17.31,32.84,21.84"/>
  <path class="st6" d="M402.28,478.14c2.51-2.43,5.34-8.33,4.85-11.65"/>
  <path class="st6" d="M344.28,346.45c9.87,4.29,66.82,34.95,80.49,22.97-.08-6.71.65-9.22-4.69-14.48"/>
  <line class="st15" x1="350.51" y1="255.85" x2="351.88" y2="248.32"/>
  <path class="st6" d="M349.54,256.01c-.08,2.91-.57,12.13,5.66,11.08,3.88-.32,21.76-22.89,22.25-24.19"/>
  <path class="st6" d="M359.4,308.99c2.02-9.3.4-8.25,7.52-14.32"/>
  <line class="st15" x1="359.4" y1="309.96" x2="360.54" y2="317.57"/>
  <path class="st6" d="M359.89,317.89l.4-.16c6.88,15.04,24.59,23.05,36.73,30.41l.89.16.73,1.29,20.14,4.61,5.01-.97,2.51-1.21.4-2.1c-16.1-8.74-32.11-14.72-47.08-30.9l-1.94-3.07-3.8-7.28c-.73-6.79-2.35-13.27-2.1-20.14M371.62,289.01c5.5-41.58,6.63-44.65,49.43-61.8l3.72-1.62"/>
  <path class="st8" d="M370.49,366.35c22.89,7.36,68.92,19.58,63.74,40.04-2.26,8.82-20.06-7.12-31.22-15.61l-32.52-24.43Z"/>
  <path class="st8" d="M379.95,136.21c13.75,2.02,24.91,17.88,36.32,31.22,9.95,11.65,28.72,17.39,33.25,7.52"/>
  <path class="st6" d="M397.34,440.2c9.95-2.59,16.91-6.55,29.85,14.08-5.1,3.32,1.05,12.21-15.37,9.95"/>
  <path class="st6" d="M388.36,326.22c2.83.16,6.07,1.05,8.98,1.37,17.47-3.88,29.04-29.69,34.46-45.7"/>
  <path class="st3" d="M398.39,204.48c3.24,4.29,18.69,6.31,21.84,6.15-7.77,3.48-22.17,8.17-29.36,12.38,11-7.2,9.14-18.04,7.52-18.52Z"/>
  <path class="st3" d="M535.1,212.73c-8.17-3.96-19.33-21.36-21.03-21.84"/>
  <path class="st3" d="M474.43,200.44c5.9-5.91,8.98-7.44,8.25-7.93"/>
  <path class="st6" d="M401.47,166.95c4.45,2.27-1.21,9.06-4.12,11.73-.08,5.34,7.36,10.76,12.29,14.4,14.64,8.9,28.88,4.13,43.52,3.07,3.15-1.13,6.31-1.37,8.74-4.45l.65-2.59c-1.05-2.99-4.93-7.6-8.41-9.62-1.37-.57-3.8-1.29-7.04-.73M397.75,156.19c-.89,2.18,3.16,8.01,3.72,11.08"/>
  <polyline class="st6" points="391.84 366.02 395.64 350.01 398.39 349.84"/>
  <path class="st6" d="M477.1,471.02c1.37-5.58,6.27-17.23,10.4-22.25"/>
  <path class="st6" d="M398.56,487.52c6.63,3.08,3.56,6.63,7.04,9.14,8.66-4.61,16.91-13.59,29.61-16.02l15.77-4.94,12.3-4.37"/>
  <path class="st6" d="M170.76,508.63c11.65-12.94,20.38-26.45,38.34-42.47"/>
  <path class="st6" d="M196.89,517.61c12.3-13.59,24.51-32.84,34.87-44.08"/>
  <path class="st6" d="M348.89,503.62c-3.07-8.41-2.18-14.16,4.12-18.61,7.12-5.1,4.85-7.52,5.5-11.4"/>
  <path class="st6" d="M184.6,519.88c11.53-1.13,27.2-4.74,27.2,3.15,0,2.61,0,6.63,2.53,8.97"/>
  <line class="st15" x1="420.96" y1="118.33" x2="432.87" y2="58.35"/>
  <path class="st6" d="M409.83,494.57c1.13,6.39,3.45,15.41,8.79,19.78,3.48,2.83,14.16-2.56,15.77-6.85,1.94-8.9,2.83-14.33-9.62-18.89"/>
  <path class="st8" d="M409.88,427.26c3.88-4.37,33.57,9.87,21.68,16.58-4.37,2.43-25.64-11.97-21.68-16.58Z"/>
  <path class="st6" d="M531.06,449.1c22.33,3.48,62.69,27.18,70.29,47.49"/>
  <path class="st6" d="M407.62,493.35c15.61-22.41,40.93-41.34,70.05-44.57"/>
  <polyline class="st6" points="414.25 379.77 419.43 374.68 422.99 371.93"/>
  <path class="st6" d="M426.62,217.99c-4.29,2.91-4.69,7.44-.4,6.8,4.93-.24,40.77-6.55,48.45-9.14,2.83-.97,1.46-4.93-.73-4.69"/>
  <path class="st6" d="M422.58,409.95c2.1,22.97,45.71,23.62,26.86-14.8l-.16-1.29"/>
  <path class="st6" d="M474.27,364.97c1.13-3.48-4.45-12.29-2.91-16.83,1.29-3.56,2.02-7.69-5.42-22.97h-.48c-19.98,17.07-24.51-25.89,1.86-27.26,8.33,7.93,3.32,18.2-1.29,26.78"/>
  <path class="st6" d="M463.84,296.13c-23.94,14.08-24.51-14.96-14.48-16.75,8.25-2.67,20.22-1.21,23.38,1.37-2.18,4.61-.49,13.27-8.9,15.37Z"/>
  <path class="st6" d="M425.82,369.91c9.95-1.54,22-13.67,35.75,2.35"/>
  <path class="st6" d="M431.48,281.73c6.07-10.51,1.62-24.35,8.82-33.41.97-6.47,1.94-7.85-4.37-12.29"/>
  <path class="st6" d="M479.21,391.1c2.43.08,1.46,4.77,1.54,5.5l-3.72,5.34-3.8,2.43-6.47,1.38c-1.21-.57-3.72-.81-4.94-2.59"/>
  <path class="st6" d="M429.86,392.72c5.58,1.86,14.56,1.86,19.98.73,3.64-.97,7.85-1.86,10.76-3.88"/>
  <path class="st6" d="M444.91,281.09c3.07-15.13,44.41-31.95,54.12-18.28"/>
  <path class="st6" d="M450.08,172.93c9.71,5.83,25.08,13.19,34.95,17.88"/>
  <path class="st6" d="M447.41,518.99c3.16-13.59,42.87-11.41,43.28,0l1.13.32c15.77-9.87,25.97,5.66,32.03,2.59,4.13,6.07,42.47,12.78,43.03-4.45-1.37-3.24-4.85-4.29-7.28-4.21"/>
  <path class="st6" d="M447.5,519.72c-.24,9.63,28.07,7.12,35.03,5.74l8.57-5.66"/>
  <polyline class="st6" points="449.92 491.97 454.45 483.8 460.44 479.51 463.92 477.9 464.89 477.17 465.7 476.68 464.08 474.09 464 471.26"/>
  <path class="st6" d="M449.92,492.29c-.32,3.96.32,8.17,1.7,12.46l.49,1.54.57,1.46.73,2.35.49,1.29"/>
  <line class="st15" x1="459.06" y1="395.39" x2="459.39" y2="390.94"/>
  <path class="st6" d="M459.22,395.55c.49,2.99.57,5.34,3.24,8.41"/>
  <path class="st6" d="M533.97,292.41c-3.24,3.88,12.21,7.44,16.34,8.49,11.24,2.83,21.03-3.32,13.99-18.52-2.18-15.77-37.62-27.91-52.26-21.19l-.24,1.21"/>
  <path class="st6" d="M512.05,276.31c-2.99,2.91,11.25,22.57,19.09,16.1,2.02-1.7,11.49-4.85,2.35-14.24"/>
  <path class="st6" d="M472.98,283.27c-8.25,12.94,18.69,21.03,20.95-5.42"/>
  <polyline class="st6" points="462.22 509.12 463.84 500.22 465.62 496.18 471.84 482.1"/>
  <path class="st6" d="M480.58,479.11c12.38,2.75,35.67,2.1,46.84.73.24,0,4.69-1.62,4.69-2.75"/>
  <line class="st2" x1="534.37" y1="212" x2="534.37" y2="213.06"/>
  <path class="st8" d="M532.59,277.45c-6.71,10.43-11.08-.08-26.05-3.96-11.81,1.29-19.98,9.14-32.28,8.66,0-.32.16-2.51.24-2.59,1.37-2.26,2.75-4.93,4.77-6.88,1.94-1.78,4.53-3.15,6.79-4.53,3.96-2.35,8.01-4.21,12.54-5.02,11.49-2.34,31.14,1.62,33.97,14.32Z"/>
  <path class="st6" d="M527.98,391.02c-2.99,3.16-2.1,6.07-2.51,9.46l5.1,6.55"/>
  <polyline class="st6" points="471.28 533.14 474.76 529.42 478.96 526.59"/>
  <path class="st6" d="M471.28,533.39c-.24,9.3,71.27,4.69,68.84-2.51-.73-1.94-1.86-2.26-3.4-3.16"/>
  <line class="st15" x1="476.05" y1="412.13" x2="477.18" y2="402.42"/>
  <line class="st15" x1="476.37" y1="412.37" x2="477.34" y2="416.5"/>
  <path class="st6" d="M477.26,429.2c-.08,1.21,2.26,3.64,3.8,4.04l2.59.89c6.88,1.7,13.75,2.91,20.63,2.83l19.09-2.67c1.78-1.38,5.42-2.35,6.8-5.26M530.49,407.2c-.57,2.51-.16,5.5-.24,7.77"/>
  <path class="st6" d="M546.43,480.97c3.24.4,4.04,2.35,8.01,5.26,8.57,6.15,5.26,22.08,4.45,27.02-9.22-.57-44.65-5.5-35.59,8.58"/>
  <path class="st6" d="M480.18,480.48l-.08.81c5.5,4.77,16.58,6.31,16.91,15.94.32,7.76,2.1,14.08,8.33,14.4,5.09.24,9.87-.97,10.03-10.92,0-3.88,2.19-16.99,13.91-18.04"/>
  <line class="st2" x1="502.5" y1="87.43" x2="502.34" y2="167.67"/>
  <polyline class="st6" points="499.51 275.1 499.59 278.9 499.59 279.31 500.08 279.79 501.45 280.2 502.5 277.69 503.07 277.45 504.93 278.01 505.42 278.25 507.03 276.64 507.44 274.53"/>
  <path class="st13" d="M501.86,279.47c-.73-2.26,3.64-2.67,3.48-.16-1.22,22.41-.89,51.37-2.67,73.77l-.48-6.31c-.73-21.76-.32-45.3-.32-67.3Z"/>
  <line class="st15" x1="512.05" y1="79.34" x2="559.04" y2="143.65"/>
  <line class="st15" x1="514.07" y1="187.01" x2="546.67" y2="174.63"/>
  <line class="st15" x1="500.96" y1="155.4" x2="554.41" y2="157.83"/>
  <line class="st15" x1="449.68" y1="156.43" x2="500.96" y2="155.4"/>
  <path class="st6" d="M545.13,475.47l.24.49,1.38.32,1.46.57.89.4,1.54.33,6.31,2.18,15.86,6.47.73.57,8.74,3.64,4.45,1.78,10.6,4.04,3.88.89,1.46.97.65.08,1.21-1.46,1.54-5.26,1.05-1.94c.32-.4.65-.81,1.05-1.21,1.38-1.54,3.8-2.35,6.15-2.91"/>
  <path class="st6" d="M523.94,449.1c3.03,10.08,5.74,11.41,6.07,22.89"/>
  <path class="st8" d="M709.24,393.16c0-.81,6.82-11.28,8.68-14.03,7.04-9.63,16.02-14.48,20.95-25.32,5.34-11.73,1.13-29.04-4.77-41.01-8.33-16.74-17.15-29.04-31.39-41.66-28.64-22.65-69.73-13.43-98.12-35.27-24.51-14.32-53.31-10.52-74.91-19.98"/>
  <path class="st6" d="M730.37,364.4c-14.96,6.63-26.21-8.82-25.64-23.7-13.91,15.13-37.53,26.37-58,31.87"/>
  <path class="st6" d="M688.23,354.37c-15.85,14.24-18.6,13.59-37.7,21.03"/>
  <path class="st6" d="M700.45,338.03l4.2,2.51c15.05-4.69,18.28-22.89,29.2-28.31"/>
  <path class="st6" d="M549.98,377.19c9.38-7.77,22-9.95,35.51-2.67,37.29-.73,80.57-8.33,104.59-26.94"/>
  <path class="st6" d="M546.67,389.56l.73.57c3.32,3.07,7.93,8.33,11.97,8.74,7.93,1.94,15.21.65,23.05-1.54l1.54-.49"/>
  <path class="st6" d="M533.73,211.36c19.41-.16,40.12,9.63,60.26-2.02l26.45-19.01s14.24-18.36,45.02-12.96c15.53,7.44,36.6,19.89,51.73,29.84,38.41,29.08,30.69,28.01,46.27,43.22,0,0,9.38,20.05,2.75,19-6.55,1.37-24.91-12.69-24.91-12.69l-10.92-7.52"/>
  <path class="st3" d="M585.98,218.88c2.1-.4,4.53-2.43,6.63-3.4,2.75-1.7,6.39-3.8,9.71-6.39-2.99,4.13-3.15,11-1.21,14.4-4.21-2.1-11-3.88-15.13-4.61Z"/>
  <path class="st6" d="M539.87,327.03c2.67,4.77,5.18,5.99,10.19,7.44,2.35-.65,4.61-1.37,5.82-3.32,2.35-8.49,4.04-12.86,2.83-21.03-2.35-6.63-12.3-10.76-18.85-7.6-6.07,9.87-6.71,12.54,0,24.51Z"/>
  <path class="st6" d="M472.25,326.39c.49,5.5,3.4,17.15,10.84,16.74,3.4-.32,6.63-4.37,7.85-6.31,2.26-8.49.08-13.19-1.13-21.36-2.35-6.63-5.99-17.15-12.54-13.91-6.07,9.87-6.31,11.32-5.02,24.83Z"/>
  <path class="st6" d="M515.93,324.69c-.65,7.44.16,17.23,7.2,18.12,10.6,1.46,14.24-10.6,12.7-20.71-.65-6.96-3.64-23.46-10.19-20.22-7.77,7.52-8.49,9.38-9.71,22.81Z"/>
  <polyline class="st6" points="530.41 472.56 530.25 475.39 531.79 476.6"/>
  <path class="st6" d="M544.65,221.39c-1.46,5.42,26.86,12.13,42.47,14.16,14.24,1.86,20.06,9.55,23.22,5.42"/>
  <path class="st6" d="M539.39,345.96c.08-4.85,3.96-9.63,3.56-14.32"/>
  <path class="st6" d="M539.31,346.93c3.15,8.49,1.46,9.71-.24,17.31"/>
  <path class="st8" d="M546.1,180.46c5.74-32.92,30.09-49.1,64.07-48.37"/>
  <path class="st8" d="M546.51,180.54c16.18-.73,36-21.19,39.32-24.67,10.52-11.16,23.54-12.62,32.44-14.32,18.44-3.8,35.11-4.69,58.08,3.56,84.21,29.85,146.82,89.3,160.57,170.92"/>
  <polyline class="st6" points="539.47 484.12 539.71 486.63 544.97 496.74 545.7 499.25 547.07 510.9"/>
  <path class="st6" d="M530.49,407.12c5.5.81,10.76,0,15.21-2.83,4.13-4.37,2.35-8.49,1.94-13.02"/>
  <path class="st8" d="M528.87,373.71c-2.51,5.26-.73,16.5-.48,18.69,3.48,8.25,10.03,6.63,14.96,1.38,5.26-5.66,5.42-11,5.66-18.2.4-11.73-13.27-16.34-20.14-1.86Z"/>
  <path class="st8" d="M553.95,186.77c.32-.73,1.13-1.62,3.32-1.94,11.24-2.91,22.97-1.13,32.28-14.64,6.55-8.98,12.3-18.77,23.46-25.56l4.04-2.91"/>
  <path class="st8" d="M546.1,180.86c.16,6.31,9.63,6.47,19.74,6.88,6.79.24,17.71-1.21,26.05-10.44,8.25-9.22,11.08-25.56,30.98-33.25,32.52-8.58,83.24,16.26,109.93,32.11,38.58,24.11,68.27,57.27,87.77,98.28,9.46,19.66,10.68,35.27,11.73,55.33-.24,29.28-9.55,41.9-25,63.74-32.19,38.99-55.9,41.9-71.67,65.68l.24,1.21c10.11,1.7,32.03-10.44,38.42-14.16,6.63-3.56,17.31-8.41,24.83-10.19,22.65-6.47,20.54-.81,29.28-21.92,3.07-5.1,9.14-14.24,10.27-19.17,33.65-62.77-3.88-137.68-46.59-187.83-39.07-40.04-117.94-79.36-174.4-78.47-14.97.24-28.47-2.02-41.98.32-13.35,2.67-16.99,15.94-19.9,26.37"/>
  <path class="st6" d="M556.78,242.74c-4.29-5.5-.49-13.67,2.99-12.86"/>
  <path class="st6" d="M559.04,399.51c-2.59,9.54,2.1,29.93,16.67,22.33l.24-.49c6.71-1.62,14.8-11.08,16.02-17.39l2.26-1.29.41.16c.89,7.52.49,13.19,7.77,18.04,27.83-16.5,56.38-28.64,84.94-44.25,4.77-2.67,8.49-4.53,17.23-10.92,6.79-4.85,13.02,1.05,13.51,2.75,2.02,5.58-5.01,11.32-8.57,16.91-8.49-2.59-29.36,13.51-37.86,18.04-.24-1.13-.08-2.02.57-3.48"/>
  <path class="st6" d="M625.38,298.15c17.15,26.13-10.19,47.56-18.85,53.31-6.88,2.99-13.35,5.99-20.71,7.2l-12.86,3.07c-1.46.08-11.89,2.67-9.06-.89,10.11-11.89,27.75-13.59,44.33-36.24"/>
  <polyline class="st6" points="607.5 351.46 619.71 350.65 620.36 351.54 620.2 357.53 621.01 372.17"/>
  <line class="st15" x1="574.01" y1="65.27" x2="578.06" y2="128.28"/>
  <path class="st6" d="M622.79,283.03c-2.43,10.43-3.48,23.54-5.91,33.89-.4,1.78-3.32,6.8-6.71,7.6-4.37.73-7.6.32-11.16-.81-5.26-2.27-10.19-7.12-14.96-12.94-9.55-16.34-15.69-23.14-14.56-39.72.16-2.1,3.24-5.34,3.24-7.69,0-4.61-.97-8.82-1.38-13.59,0-1.29.73-2.18,2.18-2.99"/>
  <path class="st8" d="M569.08,444.65c3.96-8.98,9.63-11.49,17.07-15.86,5.82-3.48,10.52-1.94,9.63,2.35-.16.97-6.31,6.23-9.79,7.85l-8.41,5.74-5.42,2.99c-2.35-.16-3.16-.81-3.08-3.07Z"/>
  <path class="st6" d="M578.59,490.11c-5.71,16.03-.77,21.98,7.64,26.19,8.52-1.25,11.81-1.43,17.31-18.02"/>
  <line class="st15" x1="576.52" y1="365.78" x2="577.97" y2="360.93"/>
  <polyline class="st6" points="576.52 366.02 576.44 368.04 576.92 370.15"/>
  <path class="st6" d="M589.06,196.39c-5.26,21.36-63.34,6.07-64.63-3.24-.32-2.67,4.85-4.45,7.77-5.1,3.64-.73,7.93-3.48,14.48-4.61"/>
  <path class="st8" d="M599.41,399.11c1.78-1.86,12.7-10.35,32.68-17.39,4.04-1.46,14.56-5.26,19.25-7.2-4.37-7.44-45.06,7.44-53.15,11.65-5.58,2.83-16.9,10.03-15.53,16.91,1.38,8.74,14.88-2.51,16.74-3.96Z"/>
  <path class="st6" d="M600.58,461.11c-3.11-10.59,5.38-20.1,22.86-22.05"/>
  <path class="st6" d="M599.95,462.29c-18.95,7.36-24.56-11.09-19.71-16.1,10.11-8.9,20.06-9.38,25.16-1.7"/>
  <path class="st6" d="M594.23,181.51c1.13-1.62,5.5-9.06,7.04-16.75"/>
  <path class="st8" d="M674.56,296.94c-.97-1.86-2.83-4.85-2.75-6.47,2.35.57,10.84,9.79,11.89,11.89,4.53,6.15,13.83,12.3,17.79,25.56,2.18,9.79-5.74,15.61-11.08,19.33,1.21-3.15,4.21-8.57,4.69-10.27,1.05-3.8,1.86-7.93.08-12.3-2.02-7.28-11.81-13.99-16.66-21.27l-3.96-6.47Z"/>
  <path class="st6" d="M628.45,274.29c2.91,5.66,8.17,10.11,14.64,13.99l15.05,5.91c5.58,1.62,11.08,2.99,16.58,3.16"/>
  <path class="st6" d="M605.96,242.9c6.07,5.82,16.91,9.95,22,16.99-2.27,9.14-3.24,14.64-4.85,23.05"/>
  <path class="st6" d="M602.81,421.11c11.08,9.38,16.82,8.01,29.28,1.7,12.46-6.31,31.55-18.77,40.77-23.94,4.61-5.82,10.68-17.23,28.8-17.72,1.86-.16,2.27,2.51,1.94,4.37"/>
  <line class="st15" x1="630.35" y1="129.12" x2="636.3" y2="68.5"/>
  <path class="st6" d="M623.6,246.14c-.32,8.01,7.12,13.51,15.37,22l14.48,9.06c4.61.89,7.28-1.54,10.84-3.24,1.37-2.51,1.7-3.96,2.02-6.47.24-3.96-1.54-7.93-2.27-11.89"/>
  <line class="st15" x1="642.36" y1="430.98" x2="643.01" y2="427.26"/>
  <path class="st6" d="M690.33,489.06c45.55-47.38,75.54-20.06,79.43-16.58,5.82,2.35,22.41,2.43,27.75,1.94"/>
  <path class="st6" d="M627.97,260.54c1.13,8.98-.49,17.88-1.7,26.86-.49,16.34-5.99,33.81-10.92,33.41"/>
  <path class="st6" d="M663.23,341.92c1.7-11.57,6.47-29.77,13.83-39.88"/>
  <polyline class="st6" points="663.64 342.24 664.12 350.57 665.5 355.43 667.28 360.44"/>
  <path class="st6" d="M701.5,327.92l1.38.24c10.03-5.1,18.53-13.83,27.26-21.84"/>
  <path class="st6" d="M712.66,389.4c-.08-1.29-1.21-3.07-2.75-3.72"/>
  <path class="st6" d="M681.36,397.73c-.16,4.12.65,5.34,4.45,2.91"/>
  <path class="st6" d="M691.3,496.91c16.72,4,39.28-11.42,59.7-6.71,15.21,4.21,7.69,2.43,22.08,8.33,16.91,0,17.91-19.88,17.67-23.44"/>
  <path class="st8" d="M688.55,437.13l3.56-3.64c5.09-8.17,10.35-16.42,18.04-24.19l13.02-14.32c8.17-10.03,15.45-20.14,19.98-30.25,9.87-22.73,3.15-45.46-11.81-68.51l-7.76-10.43-4.53-5.74-9.71-10.84c-5.26-4.29-10.36-9.22-15.62-12.86-1.37-.73-3.8-.49-5.66-.16"/>
  <path class="st8" d="M740.5,236.28c-41.26-31.79-90.94-69.53-138.1-27.43"/>
  <path class="st6" d="M715.41,253.34c3.64,3.24,7.52,6.63,11.16,9.95,17.47,19.25,33.53,34.14,52.13,52.5,2.59,2.02,16.72,20.21,21.23-6.07l-.81-10.27-.08-.81-8.59-33.73"/>
  <path class="st6" d="M719.7,329.05c5.5,8.25,8.74,17.07,7.44,25.64-.49,4.21-1.7,9.46-3.15,11.97"/>
  <line class="st15" x1="753.02" y1="174.96" x2="792.66" y2="120.51"/>
  <path class="st6" d="M762.33,452.66c-.97,4.29,3.15,15.44,7.43,19.81"/>
  <path class="st6" d="M686.29,463.25c4.29-.24,2.91,8.01-2.19,22.25"/>
  <path class="st6" d="M834.02,529.29c-9.77-6.26-26.55-22.48-34.52,1.18-1.48,4.39,1.25,8.53-.75,13.74"/>
  <path class="st6" d="M774.22,447.48c6.39,13.1,17.78,25.72,31.69,34.95,8.41-3.88,13.52-15.25,14.33-19.86-1.98,3.86-2.83-13.87-9.54-28.68"/>
  <path class="st6" d="M803.99,482.43c1.46,4.21,10.84,26.53,13.43,34.62"/>
  <path class="st6" d="M820.25,473.45c1.46,4.21,22.41,39.47,25,47.56"/>
  <path class="st6" d="M825.67,513.81c13.43,1.78,15.37,0,22.17-7.2,13.51-14.4,24.75-31.63,29.2-49.91,2.19-7.93,4.77-16.02,10.68-8.49,3.88,4.85-9.79,25.89-20.87,44.9-8.66,15.13-15.37,31.31-36.32,29.85-18.04-6.39-10.76-12.13-4.85-9.14Z"/>
  <line class="st15" x1="840.79" y1="284.89" x2="916.83" y2="262.16"/>
  <line class="st15" x1="851.71" y1="357.93" x2="919.58" y2="366.75"/>
  <line class="st15" x1="851.63" y1="334.07" x2="923.22" y2="336.17"/>
  <line class="st15" x1="845.46" y1="379.6" x2="913.68" y2="394.01"/>
  <line class="st14" x1="924.17" y1="296.83" x2="847.18" y2="309.16"/>
  <line class="st14" x1="889.65" y1="208.53" x2="820.49" y2="244.85"/>
  <line class="st14" x1="856.65" y1="171.96" x2="799.94" y2="214.27"/>
  <line class="st14" x1="697.13" y1="79.58" x2="672.94" y2="137.74"/>
  <line class="st14" x1="492.07" y1="80.15" x2="436.9" y2="132.89"/>
  <line class="st14" x1="371.29" y1="59.28" x2="381.73" y2="124.16"/>
  <line class="st14" x1="316.1" y1="67.39" x2="337.8" y2="134.07"/>
  <line class="st14" x1="167.69" y1="278.98" x2="88.58" y2="257.98"/>
  <line class="st14" x1="165.34" y1="368.53" x2="98.45" y2="384.47"/>
  <line class="st14" x1="200.45" y1="326.06" x2="182.09" y2="322.91"/>
  <line class="st14" x1="813.45" y1="276.07" x2="794.52" y2="284.4"/>
  <line class="st14" x1="787" y1="228.34" x2="770.42" y2="241.29"/>
  <line class="st14" x1="222.21" y1="255.44" x2="208.3" y2="248"/>
  <line class="st5" x1="742.19" y1="456.3" x2="737.09" y2="460.42"/>
  <path class="st11" d="M701.82,368.12c-2.59,2.83-3.72,5.58-5.58,8.9.16-.32-2.26,3.24-.4,4.61"/>
  <path class="st9" d="M479.77,384.14c.08-4.85-1.05-8.57-2.1-12.38-.81-2.91-2.99-7.52-6.88-7.2-6.47.32-9.22,8.01-9.71,12.29-.4,3.96-.32,8.33.81,11.97,5.02,16.18,19.01,7.77,17.88-4.69Z"/>
  <path class="st11" d="M678.44,295.65l-.97-13.02c-.32-7.6-3.88-20.06-3.32-24.83"/>
  <path class="st11" d="M671.65,290.23c2.43-13.99.65-28.39.73-32.6"/>
  <path class="st9" d="M531.38,422.4c-.48-5.82-.89-6.71-2.43-7.2-3.88-1.21-4.05,6.31-3.24,11.41,1.13,8.17,6.15,1.62,5.66-4.21Z"/>
  <path class="st9" d="M482.12,422.97c1.13-5.91-.08-7.76-1.7-8.09-2.35-.57-3.64,3.24-4.37,8.82-1.05,8.17,4.85,5.26,6.07-.73Z"/>
  <path class="st11" d="M446.44,222.44c1.7,1.29,2.75,4.94,1.94,7.36-1.86,5.66-5.74,7.44-14.32,5.99-3.15.49-9.46-.4-11.33-2.99-1.21-1.7,1.86-6.96,3.4-7.36"/>
  <path class="st11" d="M484.79,210.31c.08,5.74-6.96,19.33-15.13,21.44-6.71,3.48-13.19-.08-20.63-.4"/>
  <path class="st9" d="M544.97,477.01c.65-.81-.16-2.75-1.21-2.51-.89.16-4.37.73-4.85-.49-.16-.24.08-.97,0-1.29-.32-2.91-9.14-2.02-8.57,1.94.08,1.05,1.54,1.46,1.7,2.35-.32.08-1.78,1.37-2.02,1.7-.57.65-1.62,1.62-1.21,2.59.49,1.13,2.91.89,3.88,1.05,2.59.57,4.13-.24,7.77.49,2.35.57,5.1-.16,5.5-2.18,0-.4-.16-1.21-.4-1.54-.24-.16-1.37-1.13-.57-2.1Z"/>
  <path class="st9" d="M480.09,476.2c-.49-.65-1.37-1.94-2.35-2.02-.08-.4-.65-.24-.81-.65-.24-.49.49-2.27.32-3.08-.32-1.13-1.46-1.78-2.67-1.78-1.7-.08-2.59.73-3.96,1.13-2.26.57-4.53-1.05-6.15.81-1.62,1.94.24,5.58,2.35,6.31-2.02.08-4.29,1.7-3.24,2.59.08.16,3.48,1.21,3.4,1.21,2.75.4,5.66.16,8.33.48.97.16,2.91.08,3.8-.57.89-.73,1.62-2.91.97-4.45Z"/>
  <path class="st9" d="M506.71,436.48c-7.6.49-22.49-1.86-27.99-3.4-2.1-.57-3.64,1.7-4.53,3.07-.73.97.97,3.24,2.34,4.85.81.97-1.7.89-.32,3.72-3.15,1.21,0,3.48,1.21,3.32,9.95-.89,15.94,1.62,28.71.73,12.78-.89,19.42.08,24.75-.73,2.51-3.4-1.7-3.32.57-5.82.97-1.13-1.29-2.83-1.78-4.45,1.29-1.86.73-3.8-.24-4.29-4.77-2.43-14.08,2.51-22.73,2.99Z"/>
  <path class="st11" d="M597.47,385.76c-2.02-4.04-7.2-9.14-11.25-11"/>
  <path class="st6" d="M537.2,280.6c6.31-3.96,18.93-7.04,26.45,2.18"/>
  <path class="st6" d="M372.35,309.48c-12.7-23.78,3.96-63.42,8.98-60.59"/>
  <path class="st9" d="M560.34,497.31c1.7-5.74,8.65-1.29,5.82,3.48-3.64,6.07-7.69,2.91-5.82-3.48Z"/>
  <path class="st9" d="M442.96,494.16c.16,6.63,6.23,6.07,6.8-.4.48-5.18-6.8-4.21-6.8.4Z"/>
  <line class="st16" x1="821.3" y1="429.44" x2="896.41" y2="448.19"/>
  <line class="st16" x1="121.1" y1="443.6" x2="193.01" y2="417.96"/>
  <path class="st4" d="M165.02,333.26c1.13-3.8,2.1-6.31,2.75-7.6.49-1.54,1.05-3.23,1.62-4.85,4.61,25.24,6.47,42.06,20.3,64.39,9.06,13.75,22.65,32.84,36.64,40.85,12.21,6.96,22.65,16.42,32.52,26.21l-.08.49c-10.19-1.7-21.27-16.99-48.37-21.92-6.23-1.21-14.08-12.94-22-24.75-8.33-12.38-17.55-26.53-20.06-35.75-3.24-12.38-4.12-34.86-3.32-37.05Z"/>
  <path class="st1" d="M514.88,194.21c-.16,7.68-8.01,6.55-19.82,7.6-29.2-2.43,6.31-32.84,6.71-33.81l.81-.16c4.04,10.44,11.32,19.5,12.3,26.37Z"/>
  <path class="st13" d="M490.69,216.29c.97,5.42,5.82,30.01,13.75,30.17,6.8-6.47,10.84-19.09,13.91-27.83.08-1.05-5.34-4.85-6.72-5.58-7.52-1.7-16.58-.58-20.95,3.23Z"/>
  <path class="st13" d="M494.25,524.17l3.16-4.04,1.54-.97c3.64.16,18.2.16,17.15,6.31-.81,4.85-1.54,7.52-7.2,9.54-3.16.97-6.63,1.3-9.14-.32-4.21-2.51-7.6-7.77-5.5-10.52Z"/>
  <path class="st13" d="M741.7,456.06c45.06-40.45,70.13-51.04,86.55-86.96,7.04-15.37,8.98-35.67,8.58-53.31l1.37,5.66c7.04,16.5,11.16,41.58,6.15,58-36.73,67.87-13.59,42.23-52.58,56.38-10.92,3.56-47.32,24.91-50.07,20.22Z"/>
  <path class="st15" d="M477.02,401.94c0-.8,21.67-1.46,48.45-1.46"/>
  <path class="st15" d="M643.01,427.26c8.57-6.29,0,0,13.43-12.18"/>
  <path class="st15" d="M350.75,412.05c9.22,8.41,14.58,12.46,20.56,17.83"/>
  <path class="st15" d="M711.28,519.36c10.22-48.83,73.69-30.06,86.23,24.85"/>
  <path class="st15" d="M272.69,232.79c-27.69,28.55-7.93,28.84,3.3,17.11"/>
  <path class="st15" d="M279.4,249.27c-3.42,4.8,21.54-14.24,30.74-13.48,4.78.39,3.15,10.95.97,17.82"/>
  <path class="st14" d="M741.73,238.25c12.75,21.05-5.39,15.09-14.86,8.54"/>
  <path class="st0" d="M299.54,380.67c0,9.99-.76,18.66-1.46,18.66"/>
  <path class="st0" d="M714.03,387.21c0,8.27-1.23,14.95-2.75,14.95"/>
  <path class="st15" d="M756.43,463.98c-5.67,16.02-3.68,17.58-10.43,25.08"/>
  <path class="st15" d="M263.75,468.03c2.51,14.07,5.94,20.59,8.7,24.84"/>
  <path class="st15" d="M415.62,518.65c5.13-5.9,34.3-5.65,19.91,11.22"/>
  <path class="st15" d="M578.59,528.43c-9.52-11.53,11.85-13.3,18.88-11.53"/>
  <path class="st15" d="M525.67,213.74c-6.02,25.26,12.65,26.65,28.28,26.65"/>
  <path class="st15" d="M208.3,439.09c-37.53,8.23-16.58,23.53-5.25,16.28"/>
  <path class="st15" d="M813.45,433.41c28.76,11.81,20.56,37.13,5.81,19.26"/>
</svg>